<?xml version="1.0" encoding="UTF-8"?>
<svg xmlns="http://www.w3.org/2000/svg" viewBox="0 0 1024 1024">
  <defs>
    <style>
      .cls-1 {
        fill: #fff;
      }

      .cls-2 {
        fill: #336;
      }
    </style>
  </defs>
  <g id="bg">
    <rect class="cls-1" width="1024" height="1024"/>
  </g>
  <g id="Layer_3" data-name="Layer 3">
    <g>
      <path class="cls-2" d="M379,856.31c1.17-1.23,6.97-4.84,8.51-5.29,13.4-3.91,45.21,8.86,61.83,10.17,49.28,3.89,109.16-8.36,148.48-39.43,1.93-1.52,4.64.06,3.47-4.75-90.16,19.99-187.87-4.99-262.93-56.71-169.91-117.07-210.71-308.74-92.29-481.84,72.58-106.09,203.31-176.82,334.02-165.2,30.33,2.7,56.4,18.38,54.27,52.21-2.72,43.08-48.34,27.61-76.27,26.91-177.91-4.49-322.69,135.72-310.49,316.02,14.91,220.35,324.88,353.43,476.26,177.83,108.92-126.35,32.9-317.92-121.14-359.77-105.02-28.53-210.41,31.62-225.96,141.64s95.52,212.09,203.7,165.01c79.31-34.52,93.13-154.36,8.47-184.15-21.07-7.41-73.35-7.48-75.44,22.85-1.85,26.88,16.28,14.54,31.39,15.63,69.98,5.05,56.07,93.04-9.45,102.48-105.36,15.19-142.84-132.76-51.52-193.38,91.21-60.55,206.61,4.01,230.39,103.91,35.77,150.28-113.7,248.03-250.27,204.21-184.55-59.22-214.36-304.38-56.74-412.38,148.44-101.7,349.54,4.33,414.13,154.48,88.09,204.78-77.16,429.87-284.2,461.84-31.67,4.89-133.16,7.66-156.05-14.22-9.97-9.52-12.04-27.71-2.15-38.05Z"/>
      <path class="cls-2" d="M801.48,296.81c-16.46,15.23-43.95,12.51-58.37-3.91-24.65-28.07-1.92-69.36,35.99-65.45,32.98,3.4,46.34,47.2,22.38,69.37Z"/>
      <path class="cls-2" d="M232.39,727.21c40.54-1.59,58.86,57.69,18.86,75.97-61.02,27.88-80.95-73.53-18.86-75.97Z"/>
      <path class="cls-2" d="M379,856.31c1.17-1.23,6.97-4.84,8.51-5.29,13.4-3.91,45.21,8.86,61.83,10.17,49.28,3.89,109.16-8.36,148.48-39.43,1.93-1.52,4.64.06,3.47-4.75-90.16,19.99-187.87-4.99-262.93-56.71-169.91-117.07-210.71-308.74-92.29-481.84,72.58-106.09,203.31-176.82,334.02-165.2,30.33,2.7,56.4,18.38,54.27,52.21-2.72,43.08-48.34,27.61-76.27,26.91-177.91-4.49-322.69,135.72-310.49,316.02,14.91,220.35,324.88,353.43,476.26,177.83,108.92-126.35,32.9-317.92-121.14-359.77-105.02-28.53-210.41,31.62-225.96,141.64s95.52,212.09,203.7,165.01c79.31-34.52,93.13-154.36,8.47-184.15-21.07-7.41-73.35-7.48-75.44,22.85-1.85,26.88,16.28,14.54,31.39,15.63,69.98,5.05,56.07,93.04-9.45,102.48-105.36,15.19-142.84-132.76-51.52-193.38,91.21-60.55,206.61,4.01,230.39,103.91,35.77,150.28-113.7,248.03-250.27,204.21-184.55-59.22-214.36-304.38-56.74-412.38,148.44-101.7,349.54,4.33,414.13,154.48,88.09,204.78-77.16,429.87-284.2,461.84-31.67,4.89-133.16,7.66-156.05-14.22-9.97-9.52-12.04-27.71-2.15-38.05Z"/>
      <path class="cls-2" d="M801.48,296.81c-16.46,15.23-43.95,12.51-58.37-3.91-24.65-28.07-1.92-69.36,35.99-65.45,32.98,3.4,46.34,47.2,22.38,69.37Z"/>
      <path class="cls-2" d="M232.39,727.21c40.54-1.59,58.86,57.69,18.86,75.97-61.02,27.88-80.95-73.53-18.86-75.97Z"/>
    </g>
  </g>
</svg>